<svg width="625" height="102.1" xmlns="http://www.w3.org/2000/svg">
 <title>Artboard 2</title>

 <g>
  <title>background</title>
  <rect fill="none" id="canvas_background" height="104.1" width="627" y="-1" x="-1"/>
 </g>
 <g>
  <title>Layer 1</title>
  <path id="svg_1" d="m17.9,82.31072c-1.6,0 -3.4,0.1 -5.3,0.2c-1.9,0.1 -3.5,0.2 -4.8,0.2c-0.4,0 -0.8,0 -1.2,-0.1c-0.5,0 -0.8,-0.4 -0.8,-0.9c0,0 0,0 0,-0.1c0,-0.5 0.3,-1 0.8,-1.3c1,-0.6 2.2,-1 3.4,-1.1c0.6,-0.1 1.2,-0.2 1.8,-0.4c0.6,-0.2 1.2,-0.5 1.6,-1c0.5,-0.6 0.9,-1.3 1.2,-2.1c0.3,-1.2 0.5,-2.5 0.4,-3.8l0,-52.7c0,-0.5 -0.3,-1 -0.8,-1.2c-0.6,-0.3 -1.3,-0.5 -2,-0.6c-0.8,-0.1 -1.6,-0.2 -2.5,-0.2c-0.9,0 -1.7,-0.1 -2.4,-0.2c-1.3,-0.1 -2.1,-0.3 -2.6,-0.4c-0.5,-0.1 -0.8,-0.6 -0.7,-1.1c0,-0.4 0.2,-0.8 0.5,-1.1c0.3,-0.3 0.7,-0.5 1.2,-0.6c0.5,-0.1 0.9,-0.2 1.4,-0.2c0.5,0 0.9,-0.1 1.3,-0.1l10.2,0c2.8,0 5.6,-0.1 8.4,-0.3c2.8,-0.2 6,-0.3 9.6,-0.3c5.6,0 11.2,0.7 16.6,2.2c4.9,1.4 9.5,3.7 13.5,6.9c3.9,3.3 7.1,7.4 9.1,12c2.4,5.5 3.5,11.4 3.4,17.4c0,4.1 -0.9,8.2 -2.8,11.9c-1.8,3.7 -4.3,7 -7.5,9.7c-3.3,2.8 -7,5.1 -11,6.6c-4.3,1.6 -8.9,2.4 -13.5,2.4l-26.5,0m6.7,-13.7c0,1.8 0.4,3.5 1.2,5c0.8,1.4 1.9,2.6 3.3,3.5c1.4,1 3,1.7 4.6,2.1c1.7,0.4 3.5,0.7 5.3,0.7c1.8,0 3.6,-0.3 5.3,-0.7c2.2,-0.5 4.3,-1.2 6.3,-2.1c2.3,-1 4.5,-2.3 6.5,-3.8c2.2,-1.6 4.2,-3.5 5.8,-5.7c1.8,-2.3 3.2,-4.9 4.2,-7.7c1.1,-3.3 1.6,-6.7 1.6,-10.1c0,-3.5 -0.5,-7.1 -1.6,-10.4c-1.9,-5.9 -5.6,-11 -10.5,-14.8c-2.3,-1.7 -4.8,-3.3 -7.4,-4.5c-4.8,-2.2 -9.9,-3.4 -15.2,-3.5c-1.8,0 -3.6,0.1 -5.4,0.3c-1,0.1 -1.9,0.4 -2.8,0.8c-0.5,0.2 -0.9,0.7 -1.1,1.2c-0.1,0.4 -0.2,0.8 -0.2,1.2l0.1,48.5z" fill="#012169"/>
  <path id="svg_2" d="m102,84.31072c-2.2,0.1 -4.5,-0.3 -6.6,-1.1c-1.7,-0.7 -3.1,-1.8 -4.1,-3.2c-1,-1.5 -1.8,-3.2 -2.1,-5c-0.4,-2.1 -0.6,-4.3 -0.6,-6.5c0,-1.7 0,-3.6 0.1,-5.7c0,-2.1 0.1,-4.2 0.1,-6.3c0,-2.2 0,-4.3 0.1,-6.3c0,-2.1 0.1,-3.9 0.1,-5.5c0.1,-0.7 -0.4,-1.4 -1.1,-1.6c-0.7,-0.2 -1.5,-0.4 -2.1,-0.6c-0.9,-0.2 -1.8,-0.5 -2.7,-0.8c-0.4,-0.1 -0.7,-0.4 -0.7,-0.8c0,-0.4 0.3,-0.8 0.7,-0.9c0,0 0,0 0.1,0c0.7,-0.1 1.3,-0.1 2,-0.1c0.8,0 1.6,0 2.4,0.1c0.8,0.1 1.6,0.1 2.4,0.1c0.8,0 1.7,0 2.5,-0.1c0.8,-0.1 1.7,-0.1 2.5,-0.1c0.8,0 1.2,0.1 1.4,0.4c0.2,0.5 0.3,1.1 0.3,1.7c0,5 0,10 -0.1,15c-0.1,5 -0.1,9.9 -0.1,15c-0.1,2 0.8,4 2.3,5.3c1.9,1.3 4.2,2 6.5,1.8c2.5,0.1 4.9,-0.2 7.3,-0.9c1.5,-0.4 2.8,-1.2 4,-2.3c0.9,-0.9 1.5,-2 1.7,-3.2c0.3,-1.1 0.4,-2.3 0.4,-3.5c0,-4 0,-8 0.1,-12c0.1,-4 0.1,-7.9 0.1,-12c0,-0.3 -0.1,-0.5 -0.2,-0.8c-0.2,-0.3 -0.5,-0.5 -0.8,-0.6c-0.4,-0.1 -1,-0.3 -1.7,-0.5c-0.7,-0.2 -1.8,-0.5 -3.1,-0.8c-0.4,-0.1 -1.1,-0.4 -2,-0.7s-1.3,-0.7 -1.3,-1.1c0,-0.4 0.3,-0.6 0.8,-0.7c0.6,-0.1 1.1,-0.2 1.7,-0.2c1,0 1.9,0 2.9,0.1c0.9,0.1 1.9,0.1 2.9,0.1c1.1,0 2.2,0 3.3,-0.1c1.1,-0.1 2.2,-0.1 3.3,-0.1c0.5,0 1,0.2 1.5,0.4c0.6,0.3 0.9,0.9 0.9,2c0,5.7 -0.1,11.3 -0.2,17c-0.1,5.6 -0.2,11.3 -0.2,17c0,1.2 0.4,1.9 1.1,2.2c0.6,0.3 1.2,0.4 1.8,0.4c2.2,0 3.7,0 4.5,0.1c0.9,0.1 1.3,0.4 1.3,1c0,0.4 -0.2,0.7 -0.5,0.9c-0.6,0.2 -1.1,0.4 -1.7,0.4c-4,0.6 -7.1,1.1 -9.3,1.5c-1.4,0.3 -2.8,0.5 -4.2,0.7c-0.4,0 -0.7,-0.2 -0.8,-0.5c-0.1,-0.4 -0.1,-0.9 -0.1,-1.3l0,-2.6c0,-0.9 -0.3,-1.3 -0.8,-1.3c-0.7,0.1 -1.4,0.5 -1.9,1c-0.8,0.7 -1.9,1.4 -3.2,2.3c-1.4,0.9 -3,1.7 -4.6,2.3c-2.3,0.7 -4.3,1.1 -6.3,1" fill="#012169"/>
  <path id="svg_3" d="m144.4,18.51072c0.1,-1.1 -0.2,-2.3 -0.8,-3.2c-0.5,-0.6 -1.2,-1.1 -1.9,-1.3c-0.7,-0.3 -1.3,-0.5 -1.9,-0.6c-0.5,-0.1 -0.9,-0.5 -0.8,-1c0,-0.4 0.2,-0.7 0.6,-0.8c0.6,-0.3 1.2,-0.5 1.8,-0.7l7.6,-2.9c0.3,-0.1 0.6,-0.2 0.9,-0.2l1,0c0.3,0 0.6,0.2 0.8,0.4c0.3,0.5 0.5,1.1 0.4,1.6l0,46.1c0,1.2 0.3,1.8 1,1.8c0.6,-0.2 1.2,-0.4 1.7,-0.7c1,-0.5 2.2,-1.1 3.5,-1.9c1.3,-0.8 2.8,-1.7 4.3,-2.6c1.5,-1 2.9,-1.9 4.2,-2.8c1.3,-0.9 2.3,-1.7 3.2,-2.4c0.9,-0.7 1.3,-1.3 1.3,-1.6c0,-0.6 -0.2,-1.3 -0.7,-1.7c-0.4,-0.4 -0.9,-0.7 -1.5,-1c-0.5,-0.3 -1,-0.5 -1.5,-0.8c-0.4,-0.2 -0.7,-0.6 -0.7,-1.1c0,-0.3 0.2,-0.6 0.5,-0.8c0.3,-0.2 0.7,-0.3 1.1,-0.3c1.2,0 2.6,0 4.1,0.1c1.5,0.1 3,0.1 4.5,0.1c1.4,0 2.9,0 4.4,-0.1c1.5,-0.1 2.9,-0.1 4,-0.1c0.5,0 1,0.1 1.5,0.2c0.5,0.2 0.7,0.6 0.7,1.1c0,0.3 -0.2,0.6 -0.6,0.8c-0.5,0.3 -1,0.5 -1.5,0.7c-0.6,0.2 -1.2,0.4 -1.9,0.6c-0.6,0.2 -1.1,0.4 -1.5,0.5c-0.8,0.4 -2.4,1.2 -4.8,2.5c-2.4,1.3 -4.8,2.7 -7.3,4.2c-2.5,1.5 -4.7,2.9 -6.7,4.2c-1.9,1.3 -2.9,2.1 -2.9,2.4c0,0.3 0.1,0.7 0.3,1c0.2,0.2 0.4,0.4 0.6,0.6l19.4,17.6c1,0.9 2.1,1.7 3.3,2.4c1.1,0.5 2,1 2.9,1.3c0.8,0.3 1.5,0.6 2,0.8c0.5,0.2 0.7,0.5 0.7,0.9c0,0.7 -1,1.1 -2.9,1.1c-1.2,0 -2.5,-0.1 -3.9,-0.2c-1.4,-0.1 -3,-0.2 -4.7,-0.2c-1.4,0 -2.8,0.1 -4.3,0.2c-1.3,0.1 -2.7,0.2 -4,0.2c-0.9,0 -1.7,0 -2.6,-0.2c-0.5,-0.1 -0.8,-0.5 -0.8,-0.9c0,-0.5 0.4,-1 0.9,-1.1c0.8,-0.2 1.6,-0.4 2.4,-0.5c0.5,-0.1 1.1,-0.2 1.5,-0.6c0.4,-0.2 0.6,-0.6 0.6,-1c0,-0.4 -0.4,-1 -1.2,-1.8l-16.9,-16c-0.5,-0.4 -0.8,-0.7 -1,-0.7c-0.5,0 -0.8,0.2 -0.8,0.6l0,15.9c-0.1,1 0.2,1.9 0.8,2.6c0.5,0.4 1,0.8 1.6,0.9c0.7,0.3 1.5,0.5 2.3,0.6c0.6,0.1 1,0.4 1,1c0,0.4 -0.3,0.7 -0.8,0.9c-0.6,0.1 -1.2,0.2 -1.7,0.2c-1.3,0 -2.6,-0.1 -3.8,-0.2c-1.2,-0.1 -2.5,-0.2 -3.7,-0.2c-1.4,0 -2.8,0.1 -4.3,0.2c-1.5,0.1 -2.8,0.2 -3.8,0.2c-0.5,0 -1.1,-0.1 -1.6,-0.2c-0.7,-0.1 -1.1,-0.4 -1.1,-1c0,-0.4 0.2,-0.9 0.6,-1.1c0.5,-0.2 1,-0.4 1.5,-0.5c0.7,-0.2 1.5,-0.4 2.1,-0.6c0.6,-0.1 1.2,-0.4 1.8,-0.7c0.5,-0.3 0.9,-0.8 1.2,-1.3c0.3,-0.9 0.4,-1.8 0.4,-2.7l-0.1,-56.2" fill="#012169"/>
  <path id="svg_4" d="m197.2,56.31072c-0.2,0.5 -0.2,1 -0.2,1.6l0,2.4c0,2.3 0.2,4.7 0.6,7c0.4,2.1 1.2,4.2 2.4,6c1.3,1.8 3,3.3 4.9,4.2c2.6,1.2 5.5,1.7 8.3,1.6c1.7,0.1 3.4,-0.2 5,-0.7c1,-0.3 2,-0.9 2.8,-1.5c0.6,-0.5 1.1,-1 1.6,-1.6c0.3,-0.4 0.7,-0.7 1.2,-0.7c0.7,0 1,0.3 1,0.9c-0.2,0.6 -0.5,1.2 -0.9,1.7c-0.8,1.2 -1.8,2.2 -2.9,3c-1.6,1.2 -3.3,2.2 -5.1,2.9c-2.4,0.9 -4.9,1.4 -7.4,1.3c-6.2,0 -11,-2 -14.4,-6.1c-3.4,-4.1 -5.1,-9.6 -5.1,-16.7c0,-2.8 0.4,-5.5 1.2,-8.1c0.8,-2.7 2.1,-5.3 3.7,-7.6c1.7,-2.3 3.9,-4.2 6.3,-5.7c2.8,-1.6 5.9,-2.3 9.1,-2.2c2.8,-0.1 5.6,0.5 8.1,1.8c2,1.1 3.9,2.5 5.3,4.3c1.3,1.5 2.3,3.3 2.9,5.2c0.5,1.4 0.8,2.9 0.9,4.5c0.1,0.7 -0.1,1.4 -0.4,2.1c-0.3,0.3 -0.9,0.5 -1.8,0.5l-27.1,-0.1m10.7,-3.4c2,0 4,-0.1 5.9,-0.3c1.2,-0.1 2.4,-0.4 3.5,-1c0.7,-0.3 1.3,-0.9 1.6,-1.7c0.3,-0.8 0.4,-1.7 0.4,-2.6c0,-1.9 -0.9,-3.7 -2.4,-4.9c-1.7,-1.3 -3.8,-2 -5.9,-2c-1.9,0 -3.8,0.4 -5.4,1.3c-1.5,0.8 -2.9,1.8 -4,3.1c-1,1.1 -1.9,2.3 -2.5,3.7c-0.5,1 -0.8,2.1 -0.9,3.2c0,0.2 0,0.4 0.2,0.5c0.3,0.2 0.7,0.3 1.1,0.3c0.6,0.1 1.6,0.1 2.9,0.2c1.2,0.2 3.1,0.2 5.5,0.2l0,0z" fill="#012169"/>
  <text stroke="null" transform="matrix(1,0,0,1.09193754196167,0,-14.435630612075329) " xml:space="preserve" text-anchor="start" font-family="Georgia, Times, 'Times New Roman', serif" font-size="76" id="svg_14" y="82.307505" x="243.5" stroke-opacity="null" stroke-width="0" fill="#0236b1">|</text>
  <text font-weight="normal" xml:space="preserve" text-anchor="start" font-family="'Palatino Linotype', 'Book Antiqua', Palatino, serif" font-size="32" id="svg_15" y="84.003113" x="290.5" stroke-width="0" stroke="#000" fill="#0236b1">EXACTLY LAB</text>
  <text font-weight="normal" xml:space="preserve" text-anchor="start" font-family="'Palatino Linotype', 'Book Antiqua', Palatino, serif" font-size="32" id="svg_16" y="44.003113" x="287.5" stroke-width="0" stroke="#000" fill="#0236b1">ALMOST MATCHING</text>
 </g>
</svg>